<svg xmlns="http://www.w3.org/2000/svg" viewBox="0 0 194.01 188.71"><defs><style>.cls-1{fill:#fff;}</style></defs><g id="Ebene_2" data-name="Ebene 2"><g id="Ebene_1-2" data-name="Ebene 1"><path class="cls-1" d="M93.66,20.07c0-5-.26-10.2.15-15.32.13-1.66,2-3.17,3.11-4.75,1.11,1.56,3,3,3.18,4.7a66.45,66.45,0,0,1,.09,12c-.18,2.81.86,4.08,3.45,5,7.7,2.87,11.89,8.55,13.17,16.71.24,1.57,2.22,3.43,3.84,4.13,22.7,9.87,45.5,19.52,68.2,29.4,2,.87,3.45,3,5.16,4.55-1.64,1.41-3.06,3.34-5,4.17q-33.57,14.61-67.28,28.9c-3,1.29-5,2.37-5.47,6.42-.9,7.19-5.4,12.48-12.45,14.87-2.91,1-3.68,2.46-3.65,5.37.13,15.17.06,30.33.06,45.5,0,1.16.44,2.58-.06,3.44a20.15,20.15,0,0,1-3.44,3.54c-1-1.27-2.89-2.51-3-3.83-.32-6.32-.15-12.66-.15-19,0-11.15,0-22.3,0-33.62-9.48-2.71-15.32-8.45-16.61-18.44-.19-1.41-2.26-3.06-3.83-3.74-22.1-9.59-44.26-19-66.41-28.52a14.23,14.23,0,0,1-3.57-1.73C1.91,78.77.3,77.44,0,76c-.17-.83,1.83-2.54,3.17-3.16C9.05,70.09,15,67.58,21,65c17.4-7.47,34.83-14.87,52.19-22.44,1.59-.7,3.54-2.22,3.95-3.72C80.37,27,81.63,25.36,93.66,20.07ZM20.35,79.89C23,81.18,24.46,82,26,82.64,43.82,90.29,61.63,98,79.52,105.5c3,1.26,4.32,2.74,4.26,6.19-.13,8,5.83,14.1,13.06,14.07A13.15,13.15,0,0,0,110,111.85c-.11-3.35,1.14-4.88,3.87-6,6.27-2.64,12.5-5.37,18.75-8.06l39.94-17.2-.19-.67Zm151.89-7.11c.08-.24.16-.47.23-.7L169,70.6c-18.29-7.88-36.56-15.8-54.89-23.6-2.72-1.16-4.3-2.36-4.14-5.79.38-8.24-5.53-14.38-13.22-14.3-7.2.07-13.1,6.31-13,14.26.06,3.23-1.08,4.72-4,5.9-10,4.12-19.83,8.51-29.74,12.76Q35.79,66,21.49,72l.22.75Z"/></g></g></svg>