<svg xmlns="http://www.w3.org/2000/svg" viewBox="0 0 178.17 196.05"><defs><style>.cls-1{fill:#fff;}</style></defs><g id="Ebene_2" data-name="Ebene 2"><g id="Ebene_1-2" data-name="Ebene 1"><path class="cls-1" d="M107.38,57.57c-1.54-2.39-3.15-4.54-4.39-6.87a11.42,11.42,0,0,1,3.78-15c4.72-3.15,11.63-2.73,14.86,2.05,9.81,14.5,24.47,23.37,37.93,33.63,14,10.64,18,23.72,10.13,39.4-3.78,7.56-3.14,12.94,1.47,19.77,10.82,16,9,28.55-4.74,42.34-4.71,4.71-9.37,9.47-14.15,14.12-12.31,12-29.81,12.07-42,0q-26.83-26.55-53.41-53.34c-4.8-4.81-5.74-9.52-2.48-15.29,1.31-2.32.45-2.59-1.22-3.48-8.91-4.76-10.3-9.31-5.41-18.57,1-2,0-2.1-1.16-2.79-8.8-5.13-10.17-9.83-5.1-18.68,1-1.75.2-2.27-.73-3.23C37,67.76,36,63.19,38.43,58.38a11,11,0,0,1,12-6.29c2,.25,2.81,0,3.45-2.2,2.42-8.19,8.85-11.19,16.65-7.82C81.93,47,93.3,52.14,104.69,57.19,105.42,57.51,106.07,58.18,107.38,57.57Zm64.49,91.89a26.61,26.61,0,0,0-4-12.93c-9.3-15.48-20.91-29.74-25.07-47.94-.69-3-3.35-4.14-6.33-3.38-2.78.71-4,2.83-3.81,5.67a16.61,16.61,0,0,0,.58,3.44c2.51,8.62,4.62,17.43,12,23.58,1.5,1.25,2.42,2.91.77,4.75-1.84,2-3.55,1.11-5.16-.37-.74-.68-1.42-1.41-2.12-2.12Q117.18,98.62,95.63,77.07c-2.79-2.8-5.71-4.55-9-1.16-3,3.16-1.37,6,1.3,8.6q16.5,16.36,32.88,32.85a28.75,28.75,0,0,1,2.42,2.52c1.16,1.48,1.28,3.11-.19,4.44-1.3,1.19-2.77.92-4.07-.15-.77-.64-1.48-1.35-2.18-2L80.06,85.37c-1.77-1.76-3.46-3.63-5.39-5.2a5.27,5.27,0,0,0-7.56,7.23,26.64,26.64,0,0,0,2.73,2.9q19.8,19.8,39.59,39.58c1.74,1.74,4.3,3.65,1.73,6.2s-4.48-.28-6.15-1.93c-9.82-9.74-19.58-19.54-29.36-29.3-2.24-2.24-4.41-4.56-6.82-6.6-2.21-1.87-4.72-1.65-6.79.32a4.84,4.84,0,0,0-.8,6.76,24.2,24.2,0,0,0,3,3.31C75,119.37,85.75,130,96.4,140.83c1.88,1.91,5.95,3.93,2.71,7.17-3.07,3.06-5-.95-6.76-2.7-8-7.79-15.85-15.73-23.73-23.64-2.56-2.57-5.38-3.69-8.25-.81s-2,5.71.58,8.32C79.1,147.3,97.1,165.59,115.48,183.5c9.24,9,22.65,8.54,31.92-.43,6-5.8,11.82-11.75,17.7-17.65A23.61,23.61,0,0,0,171.87,149.46ZM161.34,114.1c10-16.41,7-29.43-7.56-39.47-13.34-9.23-27.12-18.26-36.33-32.31-1.79-2.73-4.68-3.25-7.43-1.26s-2.94,4.87-1.11,7.49c5.51,7.9,10.72,16.15,20.49,19.66,2.16.78,4,2.16,2.66,4.86-1.23,2.45-3.24,1.65-5.14.81l-16.38-7.3Q89.38,57.16,68.2,47.77c-3.29-1.46-6.4-1.37-8,2.27-1.33,3-.34,5.84,2.8,7,9.85,3.69,18.53,10.46,29.55,11.14,2.7.16,5,1.78,6.82,3.81a19.18,19.18,0,0,0,5.22,3.74c3.21,1.78,8.92,1.6,6.85,8-.09.26.53.78.88,1.14q7.42,7.64,14.87,15.26a25.94,25.94,0,0,0-.49-7.85c-1.18-8.15,5.06-14.57,13.08-13.27,5.09.82,8.13,4,9.44,9C151.61,97.44,155.3,106.24,161.34,114.1Zm-111.62-56c-4.09-.43-7.11,3.08-6.07,6.67.92,3.19,17.87,11.34,20.93,10,.3-.12.53-.41.82-.56a12,12,0,0,1,11.46-.16c1.24.61,2.41,2,3.57-.22,1.4-2.73-1.1-2.68-2.33-3.24-8.6-3.93-17.24-7.75-25.88-11.59C51.31,58.69,50.36,58.39,49.72,58.14ZM50.65,77c-2.85.28-4.79,1.23-5.53,3.5-.84,2.58-.41,5,2.18,6.46A50.74,50.74,0,0,0,54,90.08c2.22.83,4.49,3.43,6.8,1.68s-1-3.6-1-5.66,1.2-5.08-2.36-6.2A67.44,67.44,0,0,1,50.65,77Zm3.51,22.21c-4.6,4.15-4,7.3,1.58,9.49C54.48,105.62,53.57,102.68,54.16,99.22Z"/><path class="cls-1" d="M4.1,107.89c-2.09.18-3.54-.66-4-2.46s.61-3.26,2.53-3.59Q17.1,99.35,31.6,97a2.71,2.71,0,0,1,3.26,2.38,2.83,2.83,0,0,1-2.46,3.65C22.91,104.7,13.42,106.3,4.1,107.89Z"/><path class="cls-1" d="M91.21,30.11c.26,2.24-.21,4.3-2.76,4.45-2.38.15-3.25-1.66-3.54-3.94C83.82,22,82.62,13.48,81.4,4.92,81.06,2.52,81.22.38,84.11,0,86.8-.29,87.42,1.85,87.7,3.9,88.91,12.63,90.05,21.37,91.21,30.11Z"/><path class="cls-1" d="M23.73,157.19c-3.2-.86-4-3-2.31-5.24,5.56-7.21,11.39-14.21,17.22-21.21a2.92,2.92,0,0,1,4.44-.18,2.8,2.8,0,0,1,.32,4.05q-8.7,10.86-17.6,21.55C25.33,156.72,24.39,156.88,23.73,157.19Z"/><path class="cls-1" d="M34,115.08c2.22,0,3.46.42,3.93,1.89s.27,3.18-1.32,3.89Q27,125.08,17.36,129a2.93,2.93,0,0,1-3.82-1.49,2.39,2.39,0,0,1,.76-3.5C21,120.81,27.84,117.83,34,115.08Z"/><path class="cls-1" d="M103.93,22.49c1.12-4.7,2.43-10.32,3.82-15.92.48-1.88,1.86-2.81,3.74-2.21a3.09,3.09,0,0,1,2.3,3.85c-1.25,5.47-2.56,10.92-3.86,16.38a3,3,0,0,1-3.64,2.52C104.19,26.8,103.77,25.27,103.93,22.49Z"/></g></g></svg>