<svg xmlns="http://www.w3.org/2000/svg" viewBox="0 0 185.47 185.51"><defs><style>.cls-1{fill:#fff;}</style></defs><g id="Ebene_2" data-name="Ebene 2"><g id="Ebene_1-2" data-name="Ebene 1"><path class="cls-1" d="M36.14,166.9C-14.46,126.36-7.73,57.66,30.43,23.4c36.42-32.7,94.75-31,128.81,4.26,35.71,37,37.2,100.55-9.47,138.66.22.19.47.57.64.53,6.1-1.14,10.24,1.46,12.77,6.85,2.15,4.57,5.69,5.92,10.47,5.28a17.73,17.73,0,0,1,6.46.08c1.93.48,4.94,1.69,5.15,3,.52,3.16-2.46,3.29-4.84,3.3q-19.74,0-39.48,0-66.48,0-133,0c-3,0-7.86,1.28-7.7-3.72.14-4.58,4.63-2.07,7.24-2.56a4.44,4.44,0,0,1,1.5,0c6.84,1.12,12-1.25,14.73-7.68C26.12,165.85,30.9,167,36.14,166.9Zm12.34-18.72c.65-1.36,1.16-2.4,1.65-3.45,2.73-5.88,5.84-11.14,3-18.56-2.64-6.88,2.54-14,9.56-16.3a14.61,14.61,0,0,1,17.69,7.38c3.28,6.53,1.73,15.33-4.76,18.35-5.63,2.61-6.47,6.65-7.19,11.55C68,150.1,67.09,153,67,156c0,1.3,1,3.48,2.08,3.85,16.6,5.91,33.16,5.57,50-.89-1.19-6.51-2.26-12.87-3.63-19.15-.2-.93-1.77-1.73-2.86-2.25-8.17-3.93-11.43-12.19-7.77-19.91a14.5,14.5,0,0,1,19.34-7.18c7.7,3.5,10.61,11.94,7,20.16-.48,1.12-1.12,2.65-.73,3.6,1.93,4.71,4.18,9.28,6.34,14C159,133.36,169.4,100,161.05,71.91,152.28,42.4,124.32,21.28,93.65,21,62,20.71,34.23,40.94,24.41,71.46,15.6,98.83,26,132.45,48.48,148.18Zm94.69,14c30-20.35,43.24-61.73,31.49-96.72-12.3-36.61-48-61.22-85.77-59.17-39.6,2.16-72.55,30-80.69,68.35-7.76,36.56,10.05,72.07,34.1,87.4.72-3.33,5.14-5.77.36-9.81-21.3-18-30.33-41.41-27.45-68.85,4.52-43,44.91-74.11,87.72-68.35,58.81,7.92,87.81,76.26,52.41,123.81-4.42,5.94-10,11-15.24,16.76C141,157.48,142,159.7,143.17,162.21ZM27.32,178.7H158c-1-3.64-2.87-5.15-6.48-5.08-9.66.17-19.32.1-29,0-5.49,0-6.36-1.2-5-6.94-17.48,5.38-34.73,5.17-51.35-.7l2.58,5.07c-2,.86-3.93,2.41-5.93,2.47q-14.24.39-28.48,0C30.52,173.51,28.51,175,27.32,178.7Zm90.83-46.76a7.82,7.82,0,0,0,7.93-7.88,7.73,7.73,0,0,0-8-8.2,8,8,0,0,0-8.08,7.81A8.24,8.24,0,0,0,118.15,131.94Zm-51.54,0A8.1,8.1,0,0,0,68,115.79,8.5,8.5,0,0,0,59,123.63C58.8,127.6,62.51,131.62,66.61,131.93ZM58,166.73c1.5-9.66,4.38-19.11,4.82-28.91l-1.93-.53L47.49,166.73Zm79.83,0c-4.26-9.4-8.25-18.31-12.37-27.16-.36-.77-1.61-1.14-2.44-1.69-.22.83-.76,1.72-.62,2.48,1.57,8.77,3.25,17.51,4.92,26.37Z"/></g></g></svg>