<svg xmlns="http://www.w3.org/2000/svg" viewBox="0 0 148.87 186.68"><defs><style>.cls-1{fill:#fff;}</style></defs><g id="Ebene_2" data-name="Ebene 2"><g id="Ebene_1-2" data-name="Ebene 1"><path class="cls-1" d="M78.28,74.4,82.41,74c12-1.37,24.16-2.24,36.09-4.25,10-1.68,19.81-4.63,27.63-11.67,1.4-1.26,1.85-3.56,2.74-5.39-1.87-.69-3.73-2-5.6-2-19.66-.15-39.32-.09-59-.08h-6v-7.5c22-3.42,43.85-6.77,65.65-10.25,1.42-.22,3.67-1.34,3.79-2.27A5.56,5.56,0,0,0,145.83,26a37.35,37.35,0,0,0-9.69-4.92c-12.73-3.84-25.84-4.38-39-3.6-6.24.37-12.48.84-19.11,1.29,0-5.07.31-9.74-.17-14.32-.17-1.61-2.31-3-3.56-4.49-1,1.5-2.75,2.9-3,4.51A47.59,47.59,0,0,0,71.22,15c.35,3.9-.89,5.39-5,6C50.8,23.5,35.6,27.2,21.49,34.12A74.17,74.17,0,0,0,4.87,44.93c-7,6.24-6.33,10.64,1.38,15.79A43.52,43.52,0,0,0,12.38,64c12,5.39,24.68,7.63,37.62,8.86,6.91.66,13.84,1.06,21.15,1.61v5.15c0,24.83-.28,49.67.19,74.49.13,6.82-1.28,11.46-7.86,14-3.46,1.3-4.46,4-4.26,7.59s.05,7.07,0,11h6.65c1.32-4.78-2.64-10.14,2.55-13.76,2.33-1.62,4.16-4.59,8.59-2.6,8,3.61,5.77,9.92,5.89,16.36h6.64a25.24,25.24,0,0,1,0-3.59c1.33-8.55-.65-15.26-9.56-18.74-1.14-.44-1.94-3.19-2-4.87C78,132.65,78,105.83,78,79,78,77.55,78.18,76.09,78.28,74.4Zm54.66-48.16c.08.55.17,1.1.25,1.65L15.38,46.06l-.24-1.6C52.51,26.19,91.82,20.39,132.94,26.24Zm-62,18v6.09H34.68l-.12-.59ZM15,57.06H134.31C113.37,70,44.28,71.89,15,57.06Z"/></g></g></svg>