<svg xmlns="http://www.w3.org/2000/svg" viewBox="0 0 172.01 192.39"><defs><style>.cls-1{fill:#fff;}</style></defs><g id="Ebene_2" data-name="Ebene 2"><g id="Ebene_1-2" data-name="Ebene 1"><path class="cls-1" d="M82,61.71c5.13.52,9.37,1.15,13.62,1.24,1.37,0,3-1.16,4.12-2.19q23.7-21.45,47.3-43c5.49-5,12.24-5.94,17.87-2.57a14.73,14.73,0,0,1,6.62,16.39c-1.12,4.76-4.47,7.57-8.63,9.73-15.33,8-30.62,16-46.7,24.4,4.78,1.61,8.9,2.87,12.92,4.38,11.09,4.17,13.4,7.54,13.4,19.16,0,26.11-.14,52.22.1,78.32.06,6.73-2.42,11.71-8.47,13.77-10,3.4-20.13,7.05-30.5,8.54-23.3,3.36-46.81,3.65-70-.82-8.86-1.71-17.51-4.84-26-8.07C2.08,178.83,0,174,0,167.73Q.39,127,0,86.27c-.07-6.79,2.73-11,8.39-13.94,11.46-5.83,23.92-7.84,36.5-9.09,7.28-.73,14.67-.45,21.89-1.43,2.09-.28,4.4-3,5.57-5.22,8.53-16,16.76-32.12,25.16-48.16,3.62-6.91,9.17-9.66,15.42-7.93,9.33,2.58,12.38,13.75,5.68,21.15C107.87,33.49,97,45.25,86.25,57.05,85,58.39,83.81,59.74,82,61.71ZM64.51,68.33c-4.08.25-8.88.43-13.66.86-12.75,1.17-25.47,2.68-37.3,8C11,78.32,9,80.73,6.75,82.55c2.14,1.91,4.19,3.93,6.47,5.66A9.87,9.87,0,0,0,17.32,90C30.19,92.28,43,95.48,56,96.53c23.12,1.87,46.21.81,68.57-6.39a36.8,36.8,0,0,0,9.23-4.73c1-.65,1.57-3.43,1-4.39-2.79-4.52-25.15-11.21-30.07-9.31a32.13,32.13,0,0,0-3.12,1.53c-4.12,2.16-8.14,4.54-12.4,6.38-1.32.57-3.27-.29-4.94-.5.44-1.73.49-3.69,1.4-5.12,1-1.64,2.84-2.79,4.86-4.67-3.25-.32-5.4-.47-7.53-.76-4.1-.58-7.7-.43-10.64,3.39-1.2,1.57-4,1.92-6.06,2.82C65.71,72.78,65.17,70.78,64.51,68.33Zm10.41,53.39v64.06l29.93-2.14V119.51Zm-7.31,0-29.79-2.16v64.12l29.79,2Zm44.31-3.06v64.12c7.08-2.62,13.52-4.69,19.64-7.46,1.84-.83,3.91-3.57,4-5.49.43-13.77.38-27.56.46-41.34,0-6,0-12.08,0-17.68Zm-105-7.7a1.1,1.1,0,0,0-.23.55c0,19.28-.13,38.57.11,57.85,0,1.9,1.65,4.76,3.29,5.5,6.47,2.92,13.24,5.17,20.26,7.81V118.51Zm128.24-18c-20.29,9.54-42.08,10.8-63.84,10.8S27.5,102.37,7,92.82c-.92,9.51-.42,10.52,7.92,13.87a76.94,76.94,0,0,0,10.89,3.45c22.43,5.29,45.22,6,68,3.64,11.6-1.19,23.14-4.22,34.36-7.56C136.29,103.8,136.59,101.92,135.16,92.92ZM110,60.56l.39.62,16.08-8.39c11.33-5.88,22.68-11.73,34-17.66,5-2.6,6.46-7.39,3.77-11.59a7.79,7.79,0,0,0-11.7-1.72C138.29,34.64,124.18,47.63,110,60.56Zm-25.55-13,.86.59c9.25-10.07,18.6-20,27.64-30.3a9.38,9.38,0,0,0,2.11-7c-.3-1.61-3.43-4-5-3.75a10.06,10.06,0,0,0-6.46,4.19c-4.14,7-7.64,14.31-11.41,21.5C89.67,37.73,87.06,42.63,84.47,47.54Z"/></g></g></svg>