<svg xmlns="http://www.w3.org/2000/svg" viewBox="0 0 214.68 184.32"><defs><style>.cls-1{fill:#fff;}</style></defs><g id="Ebene_2" data-name="Ebene 2"><g id="Ebene_1-2" data-name="Ebene 1"><path class="cls-1" d="M214.59,92.16c0,15.15-.23,30.3.09,45.44.18,8.85-3.2,15.7-9.57,21.42a66.48,66.48,0,0,1-17.25,10.8,147.89,147.89,0,0,1-30.4,9.57,214.89,214.89,0,0,1-24.7,3.72,268.28,268.28,0,0,1-38.14.9,250.36,250.36,0,0,1-26.77-2.65c-13.67-2.17-27.06-5.41-39.8-11a67.7,67.7,0,0,1-17.57-10.52c-4.71-4-8.58-8.71-10-15A22.57,22.57,0,0,1,0,140.27q0-48,0-96a22.72,22.72,0,0,1,5.77-15c4.77-5.66,10.82-9.61,17.32-12.95a109.49,109.49,0,0,1,24-8.91c6.78-1.65,13.61-3.2,20.49-4.35A216.6,216.6,0,0,1,92.88.43a236.29,236.29,0,0,1,26.48-.1c8,.51,16,1.22,24,2.19a168.07,168.07,0,0,1,28.72,6.14c9.41,2.88,18.51,6.48,26.77,11.94,5,3.34,9.57,7.25,12.7,12.55a21.58,21.58,0,0,1,3,11.23Q214.58,68.26,214.59,92.16ZM104.42,80.59c6.21-.2,11.4-.33,16.59-.53a200.78,200.78,0,0,0,24.23-2.39c5.44-.88,10.85-2,16.22-3.23a117.29,117.29,0,0,0,25.74-8.91c5-2.45,9.85-5.22,13.83-9.19,3.5-3.48,3.4-2.25,1.31-6.71a3.85,3.85,0,0,0-.24-.5,35.18,35.18,0,0,0-9.53-9.39,87.79,87.79,0,0,0-21.78-10.35,172.78,172.78,0,0,0-30.14-6.91,218.08,218.08,0,0,0-23.24-2.11A219.45,219.45,0,0,0,88,21c-6.42.62-12.84,1.31-19.2,2.32a146.28,146.28,0,0,0-30,7.92,78.92,78.92,0,0,0-15.9,8c-4.39,3-8.34,6.39-11,11.12-1.35,2.41-1.4,2.87.43,4.88.3.32.61.64.93.95A58.22,58.22,0,0,0,29.16,66.38a131.94,131.94,0,0,0,30.75,9.55c7.56,1.45,15.2,2.54,22.85,3.32S97.86,80.21,104.42,80.59Zm34.72,81.46c0-5.54,0-10.89,0-16.23,0-.31-.44-.72-.77-.91a4.69,4.69,0,0,1-2.56-4.44c.06-6,.08-12,0-17.94a6,6,0,0,1,2.67-5.4,1.52,1.52,0,0,0,.71-1.46c0-5.2,0-10.4,0-15.6V98.84a300.83,300.83,0,0,1-31.78,1.7,303.49,303.49,0,0,1-31.84-1.69c0,.45-.06.78-.06,1.1,0,5.24,0,10.47,0,15.71a1.63,1.63,0,0,0,.78,1.55,5.67,5.67,0,0,1,2.6,5.09c0,6-.07,12,0,18a4.65,4.65,0,0,1-2.67,4.58,1.21,1.21,0,0,0-.71,1.31c0,2.38,0,4.75,0,7.13v8.69A243.59,243.59,0,0,0,139.14,162.05ZM68.76,98c-14.33-2.06-28.35-5.08-41.87-10.44,0,4.62,0,9,0,13.45a1.6,1.6,0,0,0,.64,1,6.25,6.25,0,0,1,2.71,5.31c-.06,6,0,12.1,0,18.14a4.49,4.49,0,0,1-2.56,4.34,1.28,1.28,0,0,0-.81,1.36c0,5.09,0,10.17,0,15.26a1.57,1.57,0,0,0,1,1.61,98.21,98.21,0,0,0,18.24,7.51c5.6,1.65,11.28,3,16.93,4.44,1.85.47,3.76.72,5.69,1.08,0-.36.09-.54.09-.72,0-5,0-10.09-.06-15.14a1.59,1.59,0,0,0-.62-1A6.13,6.13,0,0,1,65.39,139c0-6,0-12,0-18a4.85,4.85,0,0,1,2.8-4.76,1.19,1.19,0,0,0,.56-.8C68.77,109.67,68.76,103.92,68.76,98Zm77.08,62.88a6.33,6.33,0,0,0,1.08,0c2.22-.41,4.46-.75,6.64-1.29,4.52-1.13,9-2.27,13.5-3.57a106.28,106.28,0,0,0,19.8-8,1.44,1.44,0,0,0,.88-1.46c-.05-5.12,0-10.24,0-15.37a1.3,1.3,0,0,0-.82-1.34,4.49,4.49,0,0,1-2.55-4.23c0-6.08,0-12.17,0-18.25A6.28,6.28,0,0,1,187,102a1.81,1.81,0,0,0,.65-1.22c.05-2.82,0-5.64,0-8.46V87.65a2.37,2.37,0,0,0-.42,0,126.53,126.53,0,0,1-20.64,6.35c-6.62,1.4-13.29,2.56-19.94,3.78-.72.13-.89.38-.89,1.06q0,8.13,0,16.26a1.12,1.12,0,0,0,.73,1.18,4.54,4.54,0,0,1,2.66,4.38c0,6.08-.05,12.17,0,18.26a5.86,5.86,0,0,1-2.61,5.09,1.64,1.64,0,0,0-.78,1.55c0,4.38,0,8.76,0,13.14ZM207.66,59.29a53.26,53.26,0,0,1-11.89,9.24,108.74,108.74,0,0,1-25,10.41,171,171,0,0,1-29.44,6c-7.7.83-15.43,1.56-23.16,2a244.93,244.93,0,0,1-38.58-1.15,213.25,213.25,0,0,1-24.31-3.93,139.9,139.9,0,0,1-30.37-10A62.61,62.61,0,0,1,12,64c-1.73-1.42-3.4-2.93-5.08-4.38a10.06,10.06,0,0,0,1.21,7.09,24.88,24.88,0,0,0,8,7.86,75.49,75.49,0,0,0,16.22,7.93,155.38,155.38,0,0,0,28.29,7.4c6.14,1,12.3,2,18.48,2.57,7,.68,14.06,1.11,21.11,1.31A269.26,269.26,0,0,0,146.91,91a195.33,195.33,0,0,0,23.47-4.82,115.58,115.58,0,0,0,21.22-7.79A47.21,47.21,0,0,0,202.89,71C206.23,67.88,208.53,64.31,207.66,59.29ZM6.85,140.07c0,.52-.06.8,0,1.07A13.33,13.33,0,0,0,7,142.69c.75,4.29,3.18,7.62,6.23,10.53,5.52,5.27,12.13,8.86,19.16,11.62,5.18,2,10.48,3.84,15.83,5.4A165.13,165.13,0,0,0,79,176c8,.76,16.13,1.31,24.2,1.5a235.62,235.62,0,0,0,46.07-3.42A166.52,166.52,0,0,0,174,168c8.63-2.9,17-6.44,24.26-12.05,3.59-2.76,6.73-5.94,8.49-10.23a10.1,10.1,0,0,0,1-5.14c-3,2.59-5.82,5.41-9,7.8-8.32,6.27-17.79,10.25-27.62,13.46a181.74,181.74,0,0,1-33.9,7.3,230,230,0,0,1-27.64,1.78,220.44,220.44,0,0,1-33.18-2c-5.82-.84-11.64-1.79-17.4-3A132,132,0,0,1,28.74,156c-7.37-3.52-14.23-7.78-19.91-13.74C8.2,141.61,7.61,140.92,6.85,140.07Zm0-94.92c.19-.09.28-.1.31-.16A43.68,43.68,0,0,1,20.27,32.83a93.73,93.73,0,0,1,19.54-9.2,170.78,170.78,0,0,1,32.55-7.74,192.83,192.83,0,0,1,26.92-2.26c8.09-.05,16.18-.06,24.26.33a195.35,195.35,0,0,1,26.36,3.2,157.72,157.72,0,0,1,29,8A90.4,90.4,0,0,1,194,32.65a47.21,47.21,0,0,1,11.83,10.16c.61.75,1.17,1.54,1.88,2.49.5-4.36-1-7.82-3.44-10.95a39.07,39.07,0,0,0-11.59-9.74A107.34,107.34,0,0,0,166.53,14a174.8,174.8,0,0,0-30.41-5.66q-12.41-1.17-24.87-1.51A217.89,217.89,0,0,0,73.74,9c-6.33.93-12.66,2-18.9,3.38A115.7,115.7,0,0,0,24.53,23.16C19.29,26,14.38,29.28,10.62,34,8.05,37.22,6.41,40.79,6.87,45.15Zm13.28,98.07c0-4.58,0-8.88,0-13.18a1.48,1.48,0,0,0-.61-.92,6.36,6.36,0,0,1-2.73-5.41c.09-6,.06-12.09,0-18.13a4.55,4.55,0,0,1,2.6-4.31,1.24,1.24,0,0,0,.76-1.27q0-7.25,0-14.48a1.49,1.49,0,0,0-.86-1.46C15.87,82,12.48,79.78,9.1,77.59A27.33,27.33,0,0,1,6.79,75.7v.83q0,23.22,0,46.43A11.75,11.75,0,0,0,7,124.73a22,22,0,0,0,4.38,10.08A40.66,40.66,0,0,0,20.15,143.22Zm174.3,0a41,41,0,0,0,8.75-8.34,21.34,21.34,0,0,0,4.62-13.25c-.06-15,0-30,0-45,0-.27-.06-.54-.1-1A56.69,56.69,0,0,1,195,84.27a1.25,1.25,0,0,0-.52.94q-.06,7.52,0,15a1.21,1.21,0,0,0,.55.91,4.87,4.87,0,0,1,2.79,4.77c-.06,5.9-.08,11.8,0,17.7a6.34,6.34,0,0,1-2.84,5.57,1.26,1.26,0,0,0-.51.84C194.44,134.33,194.45,138.63,194.45,143.23Z"/></g></g></svg>