<svg xmlns="http://www.w3.org/2000/svg" viewBox="0 0 119.1 118.58"><defs><style>.cls-1{fill:#fff;}</style></defs><g id="Ebene_2" data-name="Ebene 2"><g id="Ebene_1-2" data-name="Ebene 1"><path class="cls-1" d="M26.16,118.58c-10.43-.49-18.7-7.35-23.88-18.09C-2.29,91,.19,80.18,8.1,72c4.18-4.3,8.39-8.57,12.7-12.73,9.05-8.74,20-10.45,31.14-4.68,2.55,1.32,4.12,1.14,6.07-.87C63.58,48,69.3,42.44,75,36.84c2.51-2.46,5.34-4.68,8.56-1.35s1.06,6-1.48,8.58c-5.54,5.53-11,11.15-16.62,16.57-2.22,2.13-2.74,3.69-1.14,6.78,5.16,10,4.32,19.8-3.05,28.37a209.16,209.16,0,0,1-16.53,16.63C40.18,116.63,34.49,118.51,26.16,118.58ZM54.88,71.71c-1.38,1.21-2.51,2.12-3.54,3.12-2.62,2.56-5.18,5.18-7.8,7.73-2.3,2.25-4.88,3-7.48.61s-2.05-5,.15-7.47c1.22-1.35,2.54-2.62,3.82-3.93L47.56,64C40.94,60,34.46,60.58,29.08,65.6,24.22,70.14,19.5,74.84,15,79.71c-6.3,6.78-6,15.54.52,22.34,7.28,7.63,15.76,8.75,23,2.44A180.49,180.49,0,0,0,53.6,89.33C58.23,84.18,58.61,77.8,54.88,71.71Z"/><path class="cls-1" d="M70.85,65.33c3.92-4,6.1-8,11.39-8.75a13,13,0,0,0,6.72-3A189.46,189.46,0,0,0,105.52,37c5.46-6.46,4.08-14.89-2.61-21.5-6.45-6.38-14.77-7.58-21.14-2.13-6.06,5.17-11.48,11.11-17,16.92a9.82,9.82,0,0,0-2.45,5.35C61.77,41,58,43.86,53.83,47.39a23.37,23.37,0,0,1-1.6-3.78,20.23,20.23,0,0,1-.43-4.47C51.77,23.2,75.59-.45,91.54,0c12.14.34,20.27,7.31,25.11,17.76,4.75,10.27,2.41,19.9-5.34,28.07q-6.72,7.06-13.8,13.78a25.27,25.27,0,0,1-21,7.17A49,49,0,0,1,70.85,65.33Z"/></g></g></svg>