<svg xmlns="http://www.w3.org/2000/svg" viewBox="0 0 220.59 220.6"><defs><style>.cls-1{fill:#fff;}</style></defs><g id="Ebene_2" data-name="Ebene 2"><g id="Ebene_1-2" data-name="Ebene 1"><path class="cls-1" d="M137.39,165.29c-17.66,0-35.33.05-53,0-17.81-.07-29.06-11.24-29.1-29q-.09-53.74,0-107.49c0-17,11.58-28.66,28.49-28.71q54-.15,108,0c16.94.06,28.63,11.63,28.7,28.59q.22,54.24,0,108.49c-.06,16.49-11.73,27.92-28.6,28.09C173.72,165.43,155.56,165.29,137.39,165.29Zm.71-151.5q-27,0-53.95,0c-9.62,0-15.31,5.57-15.33,15.08q0,54,0,107.9c0,9.14,5.84,14.95,15,15q53.94.07,107.9,0c9.32,0,15-5.7,15-14.89q.06-54,0-107.9c0-9.6-5.59-15.13-15.21-15.15Q164.83,13.76,138.1,13.79Z"/><path class="cls-1" d="M151.75,179.68h13.81c-.36,6.95.1,13.72-1.23,20.12-2.54,12.33-13.73,20.64-27.14,20.69q-54.46.21-108.93,0C11.67,220.41.1,208.59.06,192q-.13-54,0-107.93c0-17,11.45-28.47,28.43-28.74,4-.06,8,0,12.35,0V68.83c-4.1,0-8.23-.07-12.35,0C19.56,69,13.8,74.73,13.79,83.57q0,54.21,0,108.43c0,9.27,5.62,14.78,15,14.79q54,0,107.93,0c9.19,0,14.89-5.75,15-14.94C151.78,187.89,151.75,183.92,151.75,179.68Z"/></g></g></svg>