<svg xmlns="http://www.w3.org/2000/svg" viewBox="0 0 1457.6 334.93"><defs><style>.cls-1{fill:#fff;}</style></defs><g id="Ebene_2" data-name="Ebene 2"><g id="Ebene_1-2" data-name="Ebene 1"><path class="cls-1" d="M255.5,86.1q-121.4.12-242.78.06C3.85,86.16,0,82.3,0,73.39V12C0,4.18,4.17,0,12,0H254.75l10.44.06C288.07,0,311,0,333.83,0c7.8,0,12,4.15,12,11.91q0,31.18,0,62.38c0,7.72-4.2,11.85-12,11.85-23,0-46,0-68.95,0Z"/><path class="cls-1" d="M472.92,210.48q-121.4.12-242.79.06c-8.86,0-12.71-3.86-12.71-12.77q0-30.72,0-61.44c0-7.77,4.17-11.94,12-11.94H472.17l10.44.06c22.88-.11,45.76-.07,68.63-.06,7.81,0,12,4.15,12,11.91q0,31.2,0,62.38c0,7.73-4.19,11.86-12,11.86-23,0-46,.05-69-.06Z"/><path class="cls-1" d="M337.13,334.85q-121.4.12-242.79.07c-8.87,0-12.72-3.87-12.72-12.78q0-30.72,0-61.43c0-7.78,4.16-11.94,12-11.94H336.37l10.45.07c22.87-.12,45.75-.07,68.63-.06,7.8,0,12,4.15,12,11.91q0,31.19,0,62.38c0,7.73-4.2,11.85-12,11.85-23,0-46,0-68.95-.05Z"/><path class="cls-1" d="M683.62,292.46V46.84h26.06V292.46Zm16.78,0V269.25h77.83q24.27,0,38.2-13.56t13.92-33.92a47.77,47.77,0,0,0-6.07-23.92A44,44,0,0,0,807,180.9q-11.25-6.24-26.6-6.25h-80V151.8h76q20,0,31.6-10.71t11.6-30.34q0-19.64-12.5-30.35T773.59,69.69H700.4V46.84h73.9q22.85,0,38.91,8.22t24.28,22.13a60.71,60.71,0,0,1,8.21,31.41q0,20.72-10.71,35.53T803.57,166.8l2.5-8.57q23.92,7.5,37.31,24.63t13.39,40.7q0,19.63-9.46,35.16t-27.49,24.64q-18,9.11-43.38,9.1Z"/><path class="cls-1" d="M900.68,292.46V39.7h25V292.46Z"/><path class="cls-1" d="M1052.4,296a84.66,84.66,0,0,1-44.09-11.78,87.41,87.41,0,0,1-31.42-31.77q-11.6-20-11.6-44.63,0-24.27,11.6-43.91a87,87,0,0,1,31.42-31.24,85.67,85.67,0,0,1,44.09-11.6q24.63,0,44.27,11.42a86,86,0,0,1,42.84,75.33q0,25-11.6,44.8a88.41,88.41,0,0,1-31.24,31.6Q1077,296,1052.4,296Zm0-24.28q17.85,0,31.59-8.21a59.09,59.09,0,0,0,21.78-22.85,67,67,0,0,0,8-32.84q0-18.21-8-32.31A60.32,60.32,0,0,0,1084,153.23Q1070.25,145,1052.4,145a60.75,60.75,0,0,0-31.42,8.21,58.52,58.52,0,0,0-21.77,22.31q-7.86,14.11-7.86,32.31,0,18.57,7.86,33A57.77,57.77,0,0,0,1021,263.54,60.65,60.65,0,0,0,1052.4,271.75Z"/><path class="cls-1" d="M1155.93,292.46l70.69-92.11,13.92,18.57-55,73.54Zm131.73,0-56-76.4-5.36-4.28-67.47-87.11h31.06L1242,193.21l5,4.29,71.4,95Zm-38.91-81-14.28-18.21,51.41-68.54h29.63Z"/><path class="cls-1" d="M1397.26,296a90.18,90.18,0,0,1-26.06-3.75,84.4,84.4,0,0,1-22.67-10.53,78.57,78.57,0,0,1-17.67-16.06l16.07-16.43a64.56,64.56,0,0,0,22.67,18,66.44,66.44,0,0,0,28.38,5.89q16.77,0,26.24-6.42a20.43,20.43,0,0,0,9.46-17.85q0-10.71-6.79-16.78a49.28,49.28,0,0,0-17.31-9.64q-10.53-3.57-22.31-7a141.35,141.35,0,0,1-22.49-8.57,44.69,44.69,0,0,1-17.32-14.46q-6.6-9.28-6.6-24.28,0-14.26,7-24.81t20-16.42q13-5.89,30.88-5.89a83.93,83.93,0,0,1,34.27,6.78,58.35,58.35,0,0,1,24.64,20l-16.07,16.06a49.76,49.76,0,0,0-18.74-14.82,59.68,59.68,0,0,0-25.17-5.17q-16.06,0-24.45,6.25t-8.39,16.24q0,9.63,6.78,15.17a52.59,52.59,0,0,0,17.31,8.93q10.53,3.39,22.32,6.78a123.65,123.65,0,0,1,22.49,8.92,47.22,47.22,0,0,1,17.31,15q6.6,9.47,6.61,25.52,0,22.5-16.25,35.88T1397.26,296Z"/></g></g></svg>