<svg xmlns="http://www.w3.org/2000/svg" viewBox="0 0 717.94 664.19"><defs><style>.cls-1{fill:#fff;}</style></defs><g id="Ebene_2" data-name="Ebene 2"><g id="Ebene_1-2" data-name="Ebene 1"><path class="cls-1" d="M88.6,289.08,54.68,317.45c-3.33,2.78-6.59,5.63-10,8.32-11.79,9.36-28.5,8.15-37.81-2.69-10-11.6-9.12-28.15,2.69-38.44,15.32-13.36,31.08-26.2,46.66-39.24q85-71.24,170.1-142.46Q283.6,55,340.93,7.07c11.41-9.53,25.12-9.36,36.43.11L668.14,250.71q19.73,16.53,39.5,33c11.81,9.87,13.74,26.9,4.33,38.41-9.69,11.86-26.65,13.51-38.81,3.5-13.51-11.11-26.82-22.45-40.23-33.68-.75-.63-1.57-1.17-3.27-2.44v6.39q0,129,0,258a109.51,109.51,0,0,1-91.73,108.68,117.61,117.61,0,0,1-19.41,1.39q-117.74.24-235.47.24c-30,0-60,.09-90-.38-50.68-.81-97-42.7-103.32-93a140.8,140.8,0,0,1-1.09-17.41q-.11-128.49-.05-257ZM468.79,609.7c2.17.1,3.79.23,5.41.24q21.75,0,43.5,0c33.69-.08,57.9-24.37,57.9-58q0-149,.17-297.95c0-7.14-1.91-11.72-7.49-16.36Q473.77,159,379.69,79.87c-6.85-5.74-13.73-11.44-20.64-17.19-1.4,1.13-2.44,1.95-3.45,2.8q-38.5,32.22-77,64.47-66.27,55.5-132.58,111a8.34,8.34,0,0,0-3.43,7.14q.13,153.72.1,307.45c0,26.15,20.34,50.38,46.41,53.24,17,1.86,34.24.91,51.39,1.2,2.77,0,5.54,0,8.82,0V401c0-18,10.94-29,28.81-29h161c19,0,29.7,10.7,29.7,29.65q0,101,0,202Zm-165-.11h110.7V426.31H303.76Z"/></g></g></svg>