<svg xmlns="http://www.w3.org/2000/svg" viewBox="0 0 563.23 334.93"><defs><style>.cls-1{fill:#fff;}</style></defs><g id="Ebene_2" data-name="Ebene 2"><g id="Ebene_1-2" data-name="Ebene 1"><path class="cls-1" d="M255.5,86.1q-121.4.12-242.78.06C3.85,86.16,0,82.3,0,73.39V12C0,4.18,4.17,0,12,0H254.75l10.44.06C288.07,0,311,0,333.83,0c7.8,0,12,4.15,12,11.91q0,31.18,0,62.38c0,7.72-4.2,11.85-12,11.85-23,0-46,0-68.95,0Z"/><path class="cls-1" d="M472.92,210.48q-121.4.12-242.79.06c-8.86,0-12.71-3.86-12.71-12.77q0-30.72,0-61.44c0-7.77,4.17-11.94,12-11.94H472.17l10.44.06c22.88-.11,45.76-.07,68.63-.06,7.81,0,12,4.15,12,11.91q0,31.2,0,62.38c0,7.73-4.19,11.86-12,11.86-23,0-46,.05-69-.06Z"/><path class="cls-1" d="M337.13,334.85q-121.4.12-242.79.07c-8.87,0-12.72-3.87-12.72-12.78q0-30.72,0-61.43c0-7.78,4.16-11.94,12-11.94H336.37l10.45.07c22.87-.12,45.75-.07,68.63-.06,7.8,0,12,4.15,12,11.91q0,31.19,0,62.38c0,7.73-4.2,11.85-12,11.85-23,0-46,0-68.95-.05Z"/></g></g></svg>