<svg xmlns="http://www.w3.org/2000/svg" width="33.716" height="42.45" viewBox="0 0 33.716 42.45">
  <path id="Pfad_6" data-name="Pfad 6" d="M104.494,165h8.6a.7.7,0,0,0,.141.078,2.935,2.935,0,0,1,2.221,2.41q1.1,5.571,2.185,11.147c.149.762.3,1.522.481,2.409l3.088-5.556c-.121-.075-.212-.135-.307-.189-.828-.471-.94-.771-.626-1.687q.836-2.441,1.673-4.882a.978.978,0,0,1,1.582-.611c.444.243.885.49,1.352.748.234-.417.439-.806.666-1.182a.959.959,0,0,1,1.33-.451.975.975,0,0,1,.324,1.4c-.2.386-.421.764-.646,1.17.3.171.575.328.85.48a2.342,2.342,0,0,1,1.153.937v.5a4.647,4.647,0,0,1-.287.446q-1.747,2.153-3.505,4.3a.954.954,0,0,1-1.324.257c-.181-.093-.358-.192-.542-.291a1.493,1.493,0,0,0-.115.151q-1.988,3.578-3.966,7.161a.887.887,0,0,0-.059.547c.219,1.178.459,2.351.69,3.527q1.644,8.37,3.285,16.74a2.477,2.477,0,0,1-.323,1.979,2.721,2.721,0,0,1-1.38.92H96.554c-.182-.084-.368-.161-.545-.255a2.288,2.288,0,0,1-1.086-2.727q1.351-6.823,2.7-13.648,2.253-11.484,4.493-22.971a3.228,3.228,0,0,1,1.074-2.122A10.235,10.235,0,0,1,104.494,165Zm-6.016,31.434c-.034.11-.069.2-.088.292q-.8,4.052-1.587,8.106c-.13.672-.087.714.589.714h22.858c.665,0,.727-.087.592-.758-.215-1.066-.422-2.134-.632-3.2l-1.016-5.148a7.65,7.65,0,0,1-3.3-1.254c-.819-.535-1.624-1.089-2.439-1.63a7.709,7.709,0,0,0-7.685-.827,22.478,22.478,0,0,0-3.271,1.993A9.17,9.17,0,0,1,98.478,196.434Zm9.381-17.588v-5.559c-.458,0-.9.006-1.333,0a.957.957,0,1,1,.018-1.9c.436,0,.871,0,1.337,0,0-.563-.034-1.076.014-1.58a1.5,1.5,0,0,1,.312-.772.821.821,0,0,1,.989-.175.95.95,0,0,1,.582.925c.014.521,0,1.042,0,1.6.466,0,.89,0,1.314,0,.669,0,1.079.357,1.089.928s-.413.965-1.092.974c-.423.005-.847,0-1.284,0v5.52a.446.446,0,0,0,.1.032c.386,0,.772,0,1.158.007.7,0,1.115.358,1.118.943s-.419.953-1.105.96c-.422,0-.844,0-1.267,0v5.529a.651.651,0,0,0,.109.025c.386,0,.772,0,1.158.005.689.006,1.11.372,1.106.957s-.427.94-1.119.945c-.421,0-.843,0-1.268,0v1.925l2.851.724a.482.482,0,0,0,.06-.076q1.93-3.468,3.852-6.941a.816.816,0,0,0,.06-.51q-1.505-7.725-3.027-15.447a1.088,1.088,0,0,0-1.176-.982q-3.6,0-7.195,0a1.058,1.058,0,0,0-1.149.954q-.864,4.356-1.724,8.714-1.567,7.965-3.129,15.932c-.123.625-.236,1.251-.367,1.949a8.208,8.208,0,0,0,1.142-.473c.964-.587,1.912-1.2,2.851-1.825a11.327,11.327,0,0,1,3.127-1.557c.617-.177,1.251-.289,1.879-.431v-1.956a11.059,11.059,0,0,1-1.342-.014,1.648,1.648,0,0,1-.807-.331.81.81,0,0,1-.173-.957.92.92,0,0,1,.909-.6c.475-.007.951,0,1.416,0V180.8c-.036-.023-.047-.035-.058-.036-.427-.006-.854-.007-1.281-.016a.955.955,0,1,1,0-1.9C106.952,178.842,107.39,178.847,107.859,178.847Zm10.94,15.571-1.521-7.736-.091-.019-2.882,5.186C115.8,192.742,117.054,193.952,118.8,194.418Zm4.645-24.162-1.227,3.585,1.531.855,2.389-2.938Z" transform="translate(-94.846 -165)" fill="#353f50"/>
</svg>
