<svg xmlns="http://www.w3.org/2000/svg" viewBox="0 0 131.52 185.56"><defs><style>.cls-1{fill:#fff;}</style></defs><g id="Ebene_2" data-name="Ebene 2"><g id="Ebene_2-2" data-name="Ebene 2"><path class="cls-1" d="M96.79,28.76,69.65,1.61h0A5.13,5.13,0,0,0,68.8.92l-.06,0a5.81,5.81,0,0,0-.89-.47l-.07,0a5.29,5.29,0,0,0-1-.28h0a5.58,5.58,0,0,0-1-.1,5.69,5.69,0,0,0-1,.1h0a5,5,0,0,0-.95.28l-.07,0a5.38,5.38,0,0,0-.89.47l-.06,0a5.13,5.13,0,0,0-.85.69h0L34.72,28.76a5.5,5.5,0,1,0,7.78,7.77L60.26,18.78v101a5.5,5.5,0,1,0,11,0v-101L89,36.53a5.5,5.5,0,1,0,7.78-7.77Z"/><path class="cls-1" d="M118.11,185.56H13.4A13.42,13.42,0,0,1,0,172.15V67.49a13.41,13.41,0,0,1,13.4-13.4H38.5a5.5,5.5,0,0,1,0,11H13.4a2.41,2.41,0,0,0-2.4,2.4V172.15a2.41,2.41,0,0,0,2.4,2.41H118.11a2.41,2.41,0,0,0,2.41-2.41V67.49a2.41,2.41,0,0,0-2.41-2.4H93a5.5,5.5,0,0,1,0-11h25.09a13.42,13.42,0,0,1,13.41,13.4V172.15A13.43,13.43,0,0,1,118.11,185.56Z"/></g></g></svg>