<?xml version="1.0" encoding="utf-8"?>
<!-- Generator: Adobe Illustrator 25.4.1, SVG Export Plug-In . SVG Version: 6.00 Build 0)  -->
<svg version="1.1" id="Ebene_1" xmlns="http://www.w3.org/2000/svg" xmlns:xlink="http://www.w3.org/1999/xlink" x="0px" y="0px"
	 viewBox="0 0 86.3 86.3" style="enable-background:new 0 0 86.3 86.3;" xml:space="preserve">
<style type="text/css">
	.st0{fill:#FFFFFF;}
</style>
<path id="Polygon_6" class="st0" d="M16.4,75.9c-3.4,0-6.1-2.7-6.1-6.1c0,0,0,0,0,0l0-53.4c0-3.4,2.7-6.1,6.1-6.1c0,0,0,0,0,0
	l53.4,0c3.4,0,6.1,2.7,6.1,6.1c0,0,0,0,0,0l0,53.4c0,3.4-2.7,6.1-6.1,6.1c0,0,0,0,0,0L16.4,75.9z"/>
</svg>
