<svg xmlns="http://www.w3.org/2000/svg" viewBox="0 0 197.69 243.9"><defs><style>.cls-1{fill:#fff;}</style></defs><g id="Ebene_2" data-name="Ebene 2"><g id="Ebene_1-2" data-name="Ebene 1"><path class="cls-1" d="M16.83,86.89c-3.38,0-6,.07-8.68,0C3,86.71.3,84.31.22,79.25c-.17-9.66-.43-19.35.08-29C1,37.82,10.55,29.17,23.08,29c7.62-.09,15.25,0,23.46,0,0-4.1-.07-7.73,0-11.35C46.81,6.73,53.65,0,64.54,0q37,0,74,0c10.88,0,17.67,6.83,17.77,17.78,0,3.48,0,7,0,11.22,5.79,0,11.2,0,16.61,0,15.65,0,24.73,9.14,24.77,24.88q0,11.49,0,23c0,7.91-2.15,10-10.1,10H181V215.06c0,18-10.84,28.84-28.92,28.84h-107c-17.28,0-28.28-11-28.29-28.46q0-61,0-121.95Zm14,.16V92q0,61.71,0,123.41Q30.84,230,45.69,230q53.22,0,106.43,0c10.08,0,14.88-4.92,14.88-15.11q0-61.21,0-122.41V87.05ZM14.33,72.48H183.59c0-6.18,0-12,0-17.78,0-9-2.66-11.7-11.53-11.69q-56.68.09-113.38.19c-11.66,0-23.31-.18-35-.15-5.49,0-9.08,2.8-9.31,7.71C14.08,57.87,14.33,65,14.33,72.48ZM142.56,28.75c0-2.61,0-5.06,0-7.51,0-7-.35-7.36-7.28-7.37H73.33c-14.18,0-14.18,0-12.42,14.26,0,.13.2.24.54.62Z"/><path class="cls-1" d="M70.28,156.59c0,12.32,0,24.64,0,37,0,5.76-2.19,8.57-6.6,8.75-4.61.19-7.45-2.8-7.47-8.57q-.12-37.46,0-74.91c0-5.27,2.54-8.21,6.55-8.58,4.51-.4,7.48,2.82,7.51,8.4.06,12.65,0,25.3,0,38Z"/><path class="cls-1" d="M92,155.94c0-12.32,0-24.64,0-37,0-5.78,2.61-8.89,7.16-8.73,4.33.15,6.67,3.14,6.68,8.72q0,37.46,0,74.92c0,5.61-2.31,8.34-6.92,8.39S92,199.47,92,193.89C92,181.24,92,168.59,92,155.94Z"/><path class="cls-1" d="M141.67,156.36q0,17.47,0,35a29.1,29.1,0,0,1-.2,4.48c-.64,4.18-3,6.72-7.4,6.45s-6.46-3-6.49-7.31c0-5.83,0-11.66,0-17.48q0-29.46,0-58.92c0-5.29,2.4-8.16,6.62-8.33s6.93,2.7,7.44,7.71c.13,1.32.07,2.66.07,4Z"/></g></g></svg>